<?xml version="1.0" standalone="no"?>
<!DOCTYPE svg PUBLIC "-//W3C//DTD SVG 20010904//EN"
 "http://www.w3.org/TR/2001/REC-SVG-20010904/DTD/svg10.dtd">
<svg version="1.0" xmlns="http://www.w3.org/2000/svg"
 width="300.000000pt" height="193.000000pt" viewBox="0 0 300.000000 193.000000"
 preserveAspectRatio="xMidYMid meet">
<metadata>
Created by potrace 1.10, written by Peter Selinger 2001-2011
</metadata>
<g transform="translate(0.000000,193.000000) scale(0.100000,-0.100000)"
fill="#000000" stroke="none">
<path d="M440 840 c0 -398 -2 -459 -15 -464 -9 -3 -15 -18 -15 -35 0 -24 7
-34 30 -46 27 -14 33 -14 60 0 23 12 30 22 30 46 0 17 -6 32 -15 35 -13 5 -15
62 -15 426 0 332 3 419 13 415 14 -5 173 -50 235 -67 l42 -11 0 -254 0 -254
-59 -33 c-51 -28 -60 -37 -63 -65 -2 -18 -1 -33 3 -33 3 0 44 22 90 48 l84 49
0 292 0 293 -202 58 -203 57 0 -457z m50 -486 c11 -12 11 -18 -2 -31 -19 -18
-38 -10 -38 16 0 33 20 40 40 15z"/>
<path d="M303 1280 c-13 -5 -23 -16 -23 -24 0 -10 -29 -24 -90 -43 l-90 -28 0
-295 0 -295 93 -53 c50 -28 116 -66 145 -83 l52 -31 0 35 c0 34 -3 36 -117
101 l-118 67 0 254 0 255 72 24 c46 16 75 21 79 14 8 -13 56 -1 72 19 19 26
14 60 -10 77 -25 18 -33 19 -65 6z m55 -48 c3 -18 -1 -22 -22 -22 -19 0 -26 5
-26 18 0 39 43 43 48 4z"/>
<path d="M331 1133 c-13 -3 -26 -13 -28 -24 -3 -11 -20 -23 -42 -30 l-36 -11
2 -206 c1 -113 6 -209 10 -213 5 -3 41 -25 81 -47 l72 -41 0 34 c0 30 -6 37
-51 63 l-51 29 0 168 c0 127 4 170 13 176 7 4 19 3 25 -2 30 -25 84 14 84 59
0 16 -41 56 -52 51 -2 -1 -14 -4 -27 -6z m49 -58 c0 -15 -27 -28 -41 -19 -13
8 -11 42 4 47 15 5 37 -11 37 -28z"/>
<path d="M560 808 c0 -274 -2 -319 -15 -324 -9 -4 -15 -19 -15 -40 0 -27 6
-36 30 -49 27 -14 32 -14 55 1 19 12 25 25 25 50 0 19 -4 34 -10 34 -6 0 -10
102 -10 285 l0 284 23 -8 c22 -8 22 -10 22 -210 0 -110 4 -201 8 -201 4 0 19
7 32 16 l25 16 0 207 0 206 -85 26 -85 27 0 -320z m48 -363 c5 -22 -18 -37
-35 -23 -17 13 -17 35 0 41 19 8 32 2 35 -18z"/>
<path d="M1285 890 l0 -130 78 0 c64 0 80 3 97 20 24 24 26 73 4 95 -13 12
-14 19 -5 28 6 6 11 27 11 47 0 56 -22 70 -111 70 l-74 0 0 -130z m125 55 c0
-33 -2 -35 -32 -32 -55 4 -53 67 2 67 28 0 30 -3 30 -35z m10 -105 c0 -28 -2
-30 -40 -30 -38 0 -40 2 -40 30 0 28 2 30 40 30 38 0 40 -2 40 -30z"/>
<path d="M1615 890 l0 -130 30 0 30 0 0 130 0 130 -30 0 -30 0 0 -130z"/>
<path d="M1795 995 c0 -22 5 -25 33 -25 l32 0 0 -105 0 -105 28 0 27 0 -3 105
-3 105 35 0 c32 0 36 3 36 25 0 25 0 25 -92 25 -92 0 -93 0 -93 -25z"/>
<path d="M2096 1004 c-18 -17 -22 -90 -7 -113 5 -8 31 -17 58 -20 43 -5 48 -9
51 -33 3 -28 3 -28 -57 -28 -58 0 -61 -1 -61 -25 0 -24 2 -25 69 -25 75 0 96
11 107 55 14 58 -27 105 -93 105 -28 0 -33 3 -33 25 0 24 3 25 60 25 57 0 60
1 60 25 0 24 -2 25 -69 25 -50 0 -74 -4 -85 -16z"/>
<path d="M2380 890 l0 -130 80 0 c79 0 80 0 80 25 0 23 -3 25 -50 25 -49 0
-50 1 -50 30 0 29 2 30 45 30 41 0 45 2 45 25 0 23 -4 25 -45 25 -41 0 -45 2
-45 25 0 23 3 25 50 25 47 0 50 2 50 25 0 25 -1 25 -80 25 l-80 0 0 -130z"/>
<path d="M2680 1000 c-17 -17 -20 -33 -20 -110 0 -115 12 -130 100 -130 57 0
60 1 60 25 0 23 -3 25 -50 25 l-50 0 0 80 0 80 50 0 c47 0 50 2 50 25 0 24 -3
25 -60 25 -47 0 -64 -4 -80 -20z"/>
<path d="M1180 620 c-15 -28 4 -60 35 -60 16 0 25 -6 25 -15 0 -10 -10 -15
-30 -15 -20 0 -30 -5 -30 -15 0 -11 11 -15 40 -15 34 0 41 4 46 25 9 36 -1 53
-32 57 -43 5 -42 28 0 28 25 0 36 4 36 15 0 24 -76 20 -90 -5z"/>
<path d="M1397 633 c-2 -5 -10 -30 -16 -58 -7 -27 -15 -56 -17 -62 -2 -7 3
-13 11 -13 8 0 15 7 15 15 0 10 10 15 30 15 20 0 30 -5 30 -15 0 -8 7 -15 15
-15 17 0 18 3 6 50 -5 19 -12 47 -15 63 -5 20 -12 27 -31 27 -13 0 -26 -3 -28
-7z m39 -48 c7 -30 1 -40 -19 -32 -10 3 -13 15 -10 31 7 33 21 33 29 1z"/>
<path d="M1580 570 c0 -61 2 -70 18 -70 13 0 18 8 17 28 0 21 5 28 23 30 30 5
28 22 -3 22 -16 0 -25 6 -25 15 0 9 9 15 24 15 13 0 26 7 30 15 4 12 -4 15
-39 15 l-45 0 0 -70z"/>
<path d="M1768 570 l-3 -70 43 0 c31 0 42 4 42 15 0 10 -10 15 -30 15 -20 0
-30 5 -30 15 0 9 9 15 25 15 31 0 33 17 3 22 -35 5 -34 28 1 28 21 0 31 5 31
15 0 11 -11 15 -39 15 l-39 0 -4 -70z"/>
<path d="M1961 621 c-11 -20 -9 -90 3 -110 8 -12 72 -15 79 -3 3 4 7 21 8 37
3 25 0 31 -18 33 -25 4 -33 -23 -10 -31 9 -3 9 -7 0 -17 -22 -23 -43 -4 -43
40 0 39 1 40 35 40 24 0 35 5 35 15 0 24 -76 20 -89 -4z"/>
<path d="M2160 586 c0 -76 6 -86 49 -86 50 0 61 14 61 82 0 49 -3 58 -17 58
-15 0 -18 -9 -18 -57 0 -51 -2 -58 -20 -58 -17 0 -20 8 -23 58 -2 42 -7 57
-17 57 -11 0 -15 -14 -15 -54z"/>
<path d="M2401 618 c-5 -13 -16 -44 -24 -70 -13 -45 -13 -48 4 -48 11 0 19 7
19 15 0 9 9 15 25 15 16 0 25 -6 25 -15 0 -8 7 -15 16 -15 13 0 15 6 10 33 -4
17 -9 49 -13 70 -5 31 -10 37 -29 37 -16 0 -28 -8 -33 -22z m39 -38 c0 -20 -5
-30 -15 -30 -15 0 -21 40 -8 53 14 15 23 6 23 -23z"/>
<path d="M2588 570 c-3 -61 -1 -70 15 -70 11 0 17 8 17 25 0 15 6 25 15 25 8
0 17 -11 21 -25 3 -14 12 -25 20 -25 17 0 17 5 4 30 -7 13 -7 27 1 43 18 39
-3 67 -51 67 l-38 0 -4 -70z m70 28 c2 -9 -6 -18 -18 -21 -16 -4 -20 0 -20 18
0 16 5 22 18 21 9 -2 18 -10 20 -18z"/>
<path d="M2800 569 l0 -70 48 3 47 3 3 53 c4 65 -8 82 -59 82 l-39 0 0 -71z
m70 0 c0 -42 -3 -49 -20 -49 -17 0 -20 7 -20 48 0 41 3 48 20 49 18 2 20 -4
20 -48z"/>
</g>
</svg>
