<?xml version="1.0" encoding="UTF-8"?>
<!DOCTYPE svg PUBLIC "-//W3C//DTD SVG 1.1//EN" "http://www.w3.org/Graphics/SVG/1.1/DTD/svg11.dtd">
<!-- Creator: CorelDRAW -->
<svg xmlns="http://www.w3.org/2000/svg" xml:space="preserve" width="2048px" height="2048px" style="shape-rendering:geometricPrecision; text-rendering:geometricPrecision; image-rendering:optimizeQuality; fill-rule:evenodd; clip-rule:evenodd"
viewBox="0 0 2048 2048"
 xmlns:xlink="http://www.w3.org/1999/xlink">
 <defs>
  <style type="text/css">
   <![CDATA[
    .fil0 {fill:none}
    .fil2 {fill:#212121}
    .fil1 {fill:#212121;fill-rule:nonzero}
   ]]>
  </style>
 </defs>
 <g id="Layer_x0020_1">
  <metadata id="CorelCorpID_0Corel-Layer"/>
  <g id="_445074744">
   <rect id="_445076928" class="fil0" x="255.996" y="255.996" width="1536" height="1536"/>
   <g>
    <path id="_445076640" class="fil1" d="M1318.25 1089.48c0,-8.64331 -3.47244,-16.4303 -9.08387,-22.0205 -5.65748,-5.63504 -13.5354,-9.12402 -22.2945,-9.12402l-30.1264 0 -28.8733 0 0 -28.8721 0 -60.9378c0,-8.65512 -3.4689,-16.4421 -9.07442,-22.0264 -5.65276,-5.6315 -13.5319,-9.11694 -22.2969,-9.11694l-180.75 0c-8.76497,0 -16.6453,3.48544 -22.298,9.11694 -5.60552,5.58426 -9.07442,13.3713 -9.07442,22.0264l0 60.9378 0 28.8721 -28.8721 0 -30.1264 0c-8.76024,0 -16.6382,3.48898 -22.2945,9.12402 -5.61142,5.59016 -9.08505,13.3772 -9.08505,22.0205l0 240.077c0,8.64331 3.47244,16.4303 9.08505,22.0205 5.6563,5.63386 13.5343,9.12284 22.2945,9.12284l361.492 0c8.75906,0 16.637,-3.48898 22.2945,-9.12284 5.6126,-5.59016 9.08387,-13.3772 9.08387,-22.0205l0 -240.077zm31.5166 -62.8489c16.2059,16.1433 26.2299,38.3788 26.2299,62.8489l0 240.077c0,24.4713 -10.024,46.7079 -26.2299,62.8477 -16.1457,16.0819 -38.3847,26.0421 -62.8949,26.0421l-361.492 0c-24.5114,0 -46.7504,-9.96024 -62.8961,-26.0421 -16.2059,-16.1398 -26.2288,-38.3764 -26.2288,-62.8477l0 -240.077c0,-24.4701 10.0228,-46.7055 26.2288,-62.8489 16.1457,-16.0807 38.3847,-26.041 62.8961,-26.041l1.25315 0 0 -32.0646c0,-24.4843 10.0181,-46.715 26.2181,-62.8536 16.1445,-16.0843 38.3847,-26.0362 62.8997,-26.0362l180.75 0c24.5138,0 46.754,9.95198 62.8985,26.0362 16.2,16.1386 26.2181,38.3693 26.2181,62.8536l0 32.0646 1.25433 0c24.5103,0 46.7492,9.96024 62.8949,26.041z"/>
    <path id="_445078296" class="fil1" d="M384.87 1591l202.464 -837.455 0.0141732 0.00354331c5.71536,-25.0736 19.7492,-46.565 38.8158,-61.8213 19.2496,-15.4039 43.4859,-24.4618 69.3378,-24.4618l467.703 0c5.14134,-18.978 15.2232,-35.967 28.7941,-49.5107 20.0953,-20.0575 47.8087,-32.4614 78.3816,-32.4614l164.25 0 0 57.7453 -164.25 0c-14.8051,0 -28.1587,5.94095 -37.78,15.5433 -9.56221,9.5445 -15.4772,22.8177 -15.4772,37.5567l0 28.8733 -28.8733 0 -492.748 0c-12.6508,0 -24.3414,4.29567 -33.4725,11.602 -9.1878,7.35237 -15.939,17.7532 -18.6425,29.902l-0.112205 0.563386 -202.464 837.454 -55.9406 -13.5331z"/>
    <path id="_445078056" class="fil1" d="M1734.26 781.001l0 -5.72717 0.0744095 0c-0.274016,-5.32914 -1.37126,-10.5957 -3.2504,-15.6142 -1.94173,-5.19095 -4.75748,-10.1339 -8.3941,-14.6256l-0.225591 -0.22441c-5.05748,-6.35315 -11.3291,-11.3114 -18.2752,-14.6457 -6.99567,-3.35906 -14.9102,-5.15315 -23.1862,-5.15315l-82.1197 0 -28.8733 0 0 -28.8733c0,-14.739 -5.91378,-28.0122 -15.476,-37.5567 -9.62245,-9.60237 -22.976,-15.5433 -37.7811,-15.5433l-82.1186 0 -28.8733 0 0 -28.8721 0 -81.9603c0,-14.7354 -5.91615,-28.0087 -15.4784,-37.5532 -9.62363,-9.60473 -22.9772,-15.5445 -37.7788,-15.5445l-985.497 0c-14.8051,0 -28.1587,5.93977 -37.78,15.5421 -9.56339,9.5445 -15.4772,22.8177 -15.4772,37.5555l0 983.59c0,14.7413 5.91378,28.0146 15.4748,37.5579 9.62127,9.60237 22.976,15.5398 37.7823,15.5398l1149.75 0c12.652,0 24.3425,-4.29685 33.4725,-11.6032 9.1878,-7.35119 15.939,-17.752 18.6425,-29.9008l164.249 -737.697c0.373229,-1.66654 0.664961,-3.28937 0.86693,-4.85906 0.158268,-1.22244 0.274016,-2.50158 0.343701,-3.8315l-0.0673229 0zm57.7453 -5.72717l0 5.72717 -0.113386 1.01575c-0.113386,3.26221 -0.39567,6.61064 -0.840946,10.0347 -0.441733,3.41221 -1.03347,6.76654 -1.76693,10.0465l-164.25 737.697c-5.63268,25.3134 -19.7351,47.0115 -38.9433,62.3823 -19.2496,15.4028 -43.4859,24.4618 -69.3378,24.4618l-1149.75 0c-30.574,0 -58.2874,-12.4028 -78.3839,-32.4591 -20.1555,-20.1166 -32.6185,-47.8335 -32.6185,-78.3851l0 -983.59c0,-30.5481 12.4642,-58.265 32.6209,-78.3827 20.0965,-20.0563 47.8099,-32.4614 78.3816,-32.4614l985.497 0c30.5681,0 58.2827,12.4063 78.3792,32.4638 20.1579,20.1177 32.6233,47.8335 32.6233,78.3804l0 53.087 53.2465 0c30.5729,0 58.2863,12.4039 78.3827,32.4614 13.5697,13.5437 23.6516,30.5327 28.7941,49.5107l57.0733 0c16.65,0 33.039,3.83622 47.9989,11.0197 14.876,7.14095 28.1209,17.524 38.576,30.6591l-0.0283465 0.0212599c7.49056,9.30473 13.3406,19.6536 17.4437,30.6213 4.15985,11.113 6.49489,22.8567 6.89882,34.7859l0.113386 0.902363z"/>
    <path id="_445078248" class="fil2" d="M1148.74 1191.42l18.776 96.5422c0.596457,2.7437 -0.248032,5.49567 -2.23229,7.6819 -1.94055,1.96417 -4.89449,3.17362 -7.9382,3.17362l-102.528 0c-3.07914,0 -5.89961,-1.09724 -7.84843,-3.17362 -1.97599,-2.0752 -2.82166,-4.82717 -2.32323,-7.57087l18.0189 -97.4091c-12.0213,-10.4091 -18.7748,-24.5481 -18.7748,-39.5551 0,-30.5764 27.8433,-55.4599 62.191,-55.4599 34.3134,0 62.2808,24.8835 62.2808,55.4599 0,15.4288 -7.09134,29.7981 -19.6217,40.3111z"/>
   </g>
  </g>
  <rect class="fil0" width="2048" height="2048"/>
 </g>
</svg>
