<svg width="14" height="14" viewBox="0 0 14 14" fill="none" xmlns="http://www.w3.org/2000/svg">
<g clip-path="url(#clip0_3886_5817)">
<path d="M12.7559 2.28924L7.50586 0.101742C7.34521 0.0333828 7.17336 0.000488281 7.00164 0.000488281C6.82992 0.000488281 6.6582 0.0331914 6.49688 0.101551L1.24715 2.28924C0.758242 2.49077 0.4375 2.96983 0.4375 3.47569C0.4375 10.5386 5.61641 14.0003 6.99727 14.0003C8.34531 14.0003 13.5625 10.5905 13.5625 3.47569C13.5625 2.96983 13.2426 2.49077 12.7559 2.28924ZM7 12.6878C4.33398 11.5776 1.75 8.12959 1.75 3.5003L7 1.3128L12.25 3.5003C12.25 8.25264 9.55937 11.6214 7 12.6878ZM5.47148 6.7542C5.36758 6.62569 5.19805 6.53819 5.03125 6.53819C4.65637 6.53819 4.375 6.84471 4.375 7.19444C4.375 7.38584 4.43789 7.55538 4.56641 7.65928L5.87891 8.97178C6.00195 9.11944 6.17148 9.16319 6.34375 9.16319C6.41471 9.16319 6.65711 9.14962 6.84195 8.93418L9.46695 5.87168C9.57307 5.74787 9.62503 5.59578 9.62503 5.44457C9.62503 5.24209 9.46671 4.7886 8.96932 4.7886C8.78459 4.7886 8.60073 4.86601 8.47057 5.01725L6.3082 7.56631L5.47148 6.7542Z" fill="white"/>
</g>
<defs>
<clipPath id="clip0_3886_5817">
<rect width="14" height="14" fill="white" transform="translate(0 0.000244141)"/>
</clipPath>
</defs>
</svg>
